<?xml version="1.0" encoding="UTF-8" standalone="no"?>
<!-- Created with Inkscape (http://www.inkscape.org/) -->
<svg
   xmlns:svg="http://www.w3.org/2000/svg"
   xmlns="http://www.w3.org/2000/svg"
   version="1.0"
   width="162.5"
   height="162.5"
   id="svg101">
  <defs
     id="defs4" />
  <path
     d="M 63.7795,155.413 C 63.7795,155.413 77.9528,155.413 77.9528,155.413 C 77.9528,155.413 77.9528,127.067 77.9528,127.067 C 77.9528,127.067 99.2126,119.98 99.2126,105.807 C 92.126,105.807 85.0394,105.807 85.0394,105.807 C 85.0394,105.807 85.0394,84.5472 85.0394,84.5472 C 85.0394,84.5472 85.0394,105.807 85.0394,105.807 C 85.0394,105.807 56.6929,105.807 56.6929,105.807 C 56.6929,105.807 56.6929,84.5472 56.6929,84.5472 C 56.6929,84.5472 56.6929,105.807 56.6929,105.807 C 56.6929,105.807 42.5197,105.807 42.5197,105.807 C 42.5197,119.98 63.7795,127.067 63.7795,127.067 C 63.7795,127.067 63.7795,155.413 63.7795,155.413 z "
     transform="matrix(1.5,0,0,1.5,-28.3465,-77.7068)"
     style="font-size:12px;fill:#f0f0f8;fill-opacity:0.19607795;fill-rule:evenodd;stroke:#4a4b4f;stroke-width:6.25;stroke-linecap:round;stroke-linejoin:round"
     id="path1912" />
</svg>
