<?xml version="1.0" encoding="UTF-8" standalone="no"?>
<!-- Created with Inkscape (http://www.inkscape.org/) -->
<svg
   xmlns:svg="http://www.w3.org/2000/svg"
   xmlns="http://www.w3.org/2000/svg"
   version="1.0"
   width="162.5"
   height="162.5"
   id="svg101">
  <defs
     id="defs5" />
  <path
     d="M 63.7795,155.413 C 63.7795,155.413 77.9528,155.413 77.9528,155.413 C 77.9528,155.413 77.9528,127.067 77.9528,127.067 C 77.9528,127.067 99.2126,119.98 99.2126,105.807 C 92.126,105.807 42.5197,105.807 42.5197,105.807 C 42.5197,119.98 63.7795,127.067 63.7795,127.067 C 63.7795,127.067 63.7795,155.413 63.7795,155.413 z "
     transform="matrix(1.41317,0,0,1.41317,-17.5675,-64.0834)"
     style="font-size:12px;fill:#f0f0f8;fill-opacity:0.19607795;fill-rule:evenodd;stroke:#4a4b4f;stroke-width:6.25;stroke-linecap:round;stroke-linejoin:round"
     id="path1913" />
  <path
     d="M 63.7795,155.413 C 63.7795,155.413 77.9528,155.413 77.9528,155.413 C 77.9528,155.413 77.9528,127.067 77.9528,127.067 C 77.9528,127.067 99.2126,119.98 99.2126,105.807 C 92.126,105.807 42.5197,105.807 42.5197,105.807 C 42.5197,119.98 63.7795,127.067 63.7795,127.067 C 63.7795,127.067 63.7795,155.413 63.7795,155.413 z "
     transform="matrix(-1.41317,0,0,-1.41317,182.724,226.219)"
     style="font-size:12px;fill:#f0f0f8;fill-opacity:0.19607795;fill-rule:evenodd;stroke:#4a4b4f;stroke-width:6.25;stroke-linecap:round;stroke-linejoin:round"
     id="path1914" />
</svg>
