<?xml version="1.0" encoding="UTF-8" standalone="no"?>
<!-- Created with Inkscape (http://www.inkscape.org/) -->
<svg
   xmlns:svg="http://www.w3.org/2000/svg"
   xmlns="http://www.w3.org/2000/svg"
   version="1.0"
   width="162.5"
   height="162.5"
   id="svg101">
  <defs
     id="defs6" />
  <path
     d="M 14.1732,191.939 C 17.7165,191.939 57.2466,191.939 70.8661,191.939 C 70.8661,191.939 70.8661,128.16 70.8661,128.16 C 70.8661,128.16 106.299,128.16 113.386,128.16 C 113.386,128.16 113.386,191.939 113.386,191.939 C 127.891,191.939 164.764,191.939 170.079,191.939 C 170.079,174.223 170.079,92.7267 170.079,78.5534 C 162.992,71.4668 141.732,50.207 134.646,43.1204 C 134.646,28.9471 134.646,14.7739 134.646,0.600681 C 127.559,0.600681 120.472,0.600681 113.386,0.600681 C 113.386,7.6873 113.386,14.7739 113.386,28.9471 C 106.299,21.8605 99.2126,14.7739 92.126,7.6873 C 56.6929,36.0338 35.4331,57.2936 14.1732,78.5534 C 14.1732,99.8133 14.1732,170.679 14.1732,191.939 z "
     transform="matrix(0.404566,0,0,0.404566,87.99602,79.16289)"
     style="font-size:12px;fill:#f0f0f8;fill-opacity:0.19607795;fill-rule:evenodd;stroke:#4a4b4f;stroke-width:16.17650032;stroke-linecap:round;stroke-linejoin:round"
     id="path1651" />
  <ellipse
     cx="81.469795"
     cy="76.767242"
     rx="61.576012"
     ry="61.576015"
     transform="matrix(0.707692,0,0,0.707692,27.12982,30.49189)"
     style="font-size:12px;fill:#f0f0f8;fill-opacity:0.19607795;fill-rule:evenodd;stroke:#4a4b4f;stroke-width:12.5;stroke-linecap:round;stroke-linejoin:round"
     id="path1504" />
  <path
     d="M 14.1732,191.939 C 17.7165,191.939 57.2466,191.939 70.8661,191.939 C 70.8661,191.939 70.8661,128.16 70.8661,128.16 C 70.8661,128.16 106.299,128.16 113.386,128.16 C 113.386,128.16 113.386,191.939 113.386,191.939 C 127.891,191.939 164.764,191.939 170.079,191.939 C 170.079,174.223 170.079,92.7267 170.079,78.5534 C 162.992,71.4668 141.732,50.207 134.646,43.1204 C 134.646,28.9471 134.646,14.7739 134.646,0.600681 C 127.559,0.600681 120.472,0.600681 113.386,0.600681 C 113.386,7.6873 113.386,14.7739 113.386,28.9471 C 106.299,21.8605 99.2126,14.7739 92.126,7.6873 C 56.6929,36.0338 35.4331,57.2936 14.1732,78.5534 C 14.1732,99.8133 14.1732,170.679 14.1732,191.939 z "
     transform="matrix(0.404566,0,0,0.404566,1.789605,5.745335)"
     style="font-size:12px;fill:#f0f0f8;fill-opacity:0.19607795;fill-rule:evenodd;stroke:#4a4b4f;stroke-width:16.17650032;stroke-linecap:round;stroke-linejoin:round"
     id="path171" />
</svg>
